<?xml version="1.0"?>
<!-- Generated by SVGo -->
<svg width="257.652mm" height="86.202mm"
     viewBox="0.000 0.000 257.652 86.202"
     xmlns="http://www.w3.org/2000/svg" 
     xmlns:xlink="http://www.w3.org/1999/xlink">
<polygon points="252.652,81.202 5.001,81.202 5.001,5.001 252.652,5.001" style="fill:none;stroke-width:0.050000mm;stroke:black"/>
<polygon points="7.526,64.676 7.526,78.676 21.526,78.676 21.526,64.676" style="fill:none;stroke-width:0.050000mm;stroke:black"/>
<polygon points="26.576,64.676 26.576,78.676 40.576,78.676 40.576,64.676" style="fill:none;stroke-width:0.050000mm;stroke:black"/>
<polygon points="45.626,64.676 45.626,78.676 59.626,78.676 59.626,64.676" style="fill:none;stroke-width:0.050000mm;stroke:black"/>
<polygon points="64.676,64.676 64.676,78.676 78.676,78.676 78.676,64.676" style="fill:none;stroke-width:0.050000mm;stroke:black"/>
<polygon points="83.726,64.676 83.726,78.676 97.726,78.676 97.726,64.676" style="fill:none;stroke-width:0.050000mm;stroke:black"/>
<polygon points="102.775,64.676 102.775,78.676 116.775,78.676 116.775,64.676" style="fill:none;stroke-width:0.050000mm;stroke:black"/>
<polygon points="121.825,64.676 121.825,78.676 135.826,78.676 135.826,64.676" style="fill:none;stroke-width:0.050000mm;stroke:black"/>
<polygon points="140.876,64.676 140.876,78.676 154.876,78.676 154.876,64.676" style="fill:none;stroke-width:0.050000mm;stroke:black"/>
<polygon points="159.926,64.676 159.926,78.676 173.926,78.676 173.926,64.676" style="fill:none;stroke-width:0.050000mm;stroke:black"/>
<polygon points="178.976,64.676 178.976,78.676 192.976,78.676 192.976,64.676" style="fill:none;stroke-width:0.050000mm;stroke:black"/>
<polygon points="198.026,64.676 198.026,78.676 212.026,78.676 212.026,64.676" style="fill:none;stroke-width:0.050000mm;stroke:black"/>
<polygon points="217.076,64.676 217.076,78.676 231.076,78.676 231.076,64.676" style="fill:none;stroke-width:0.050000mm;stroke:black"/>
<polygon points="236.126,64.676 236.126,78.676 250.126,78.676 250.126,64.676" style="fill:none;stroke-width:0.050000mm;stroke:black"/>
<polygon points="7.526,45.626 7.526,59.626 21.526,59.626 21.526,45.626" style="fill:none;stroke-width:0.050000mm;stroke:black"/>
<polygon points="26.576,45.626 26.576,59.626 40.576,59.626 40.576,45.626" style="fill:none;stroke-width:0.050000mm;stroke:black"/>
<polygon points="45.626,45.626 45.626,59.626 59.626,59.626 59.626,45.626" style="fill:none;stroke-width:0.050000mm;stroke:black"/>
<polygon points="64.676,45.626 64.676,59.626 78.676,59.626 78.676,45.626" style="fill:none;stroke-width:0.050000mm;stroke:black"/>
<polygon points="83.726,45.626 83.726,59.626 97.726,59.626 97.726,45.626" style="fill:none;stroke-width:0.050000mm;stroke:black"/>
<polygon points="102.775,45.626 102.775,59.626 116.775,59.626 116.775,45.626" style="fill:none;stroke-width:0.050000mm;stroke:black"/>
<polygon points="121.825,45.626 121.825,59.626 135.826,59.626 135.826,45.626" style="fill:none;stroke-width:0.050000mm;stroke:black"/>
<polygon points="140.876,45.626 140.876,59.626 154.876,59.626 154.876,45.626" style="fill:none;stroke-width:0.050000mm;stroke:black"/>
<polygon points="159.926,45.626 159.926,59.626 173.926,59.626 173.926,45.626" style="fill:none;stroke-width:0.050000mm;stroke:black"/>
<polygon points="178.976,45.626 178.976,59.626 192.976,59.626 192.976,45.626" style="fill:none;stroke-width:0.050000mm;stroke:black"/>
<polygon points="198.026,45.626 198.026,59.626 212.026,59.626 212.026,45.626" style="fill:none;stroke-width:0.050000mm;stroke:black"/>
<polygon points="217.076,45.626 217.076,59.626 231.076,59.626 231.076,45.626" style="fill:none;stroke-width:0.050000mm;stroke:black"/>
<polygon points="236.126,45.626 236.126,59.626 250.126,59.626 250.126,45.626" style="fill:none;stroke-width:0.050000mm;stroke:black"/>
<polygon points="7.526,26.576 7.526,40.576 21.526,40.576 21.526,26.576" style="fill:none;stroke-width:0.050000mm;stroke:black"/>
<polygon points="26.576,26.576 26.576,40.576 40.576,40.576 40.576,26.576" style="fill:none;stroke-width:0.050000mm;stroke:black"/>
<polygon points="45.626,26.576 45.626,40.576 59.626,40.576 59.626,26.576" style="fill:none;stroke-width:0.050000mm;stroke:black"/>
<polygon points="64.676,26.576 64.676,40.576 78.676,40.576 78.676,26.576" style="fill:none;stroke-width:0.050000mm;stroke:black"/>
<polygon points="83.726,26.576 83.726,40.576 97.726,40.576 97.726,26.576" style="fill:none;stroke-width:0.050000mm;stroke:black"/>
<polygon points="102.775,26.576 102.775,40.576 116.775,40.576 116.775,26.576" style="fill:none;stroke-width:0.050000mm;stroke:black"/>
<polygon points="121.825,26.576 121.825,40.576 135.826,40.576 135.826,26.576" style="fill:none;stroke-width:0.050000mm;stroke:black"/>
<polygon points="140.876,26.576 140.876,40.576 154.876,40.576 154.876,26.576" style="fill:none;stroke-width:0.050000mm;stroke:black"/>
<polygon points="159.926,26.576 159.926,40.576 173.926,40.576 173.926,26.576" style="fill:none;stroke-width:0.050000mm;stroke:black"/>
<polygon points="178.976,26.576 178.976,40.576 192.976,40.576 192.976,26.576" style="fill:none;stroke-width:0.050000mm;stroke:black"/>
<polygon points="198.026,26.576 198.026,40.576 212.026,40.576 212.026,26.576" style="fill:none;stroke-width:0.050000mm;stroke:black"/>
<polygon points="217.076,26.576 217.076,40.576 231.076,40.576 231.076,26.576" style="fill:none;stroke-width:0.050000mm;stroke:black"/>
<polygon points="236.126,26.576 236.126,40.576 250.126,40.576 250.126,26.576" style="fill:none;stroke-width:0.050000mm;stroke:black"/>
<polygon points="7.526,7.526 7.526,21.526 21.526,21.526 21.526,7.526" style="fill:none;stroke-width:0.050000mm;stroke:black"/>
<polygon points="26.576,7.526 26.576,21.526 40.576,21.526 40.576,7.526" style="fill:none;stroke-width:0.050000mm;stroke:black"/>
<polygon points="45.626,7.526 45.626,21.526 59.626,21.526 59.626,7.526" style="fill:none;stroke-width:0.050000mm;stroke:black"/>
<polygon points="64.676,7.526 64.676,21.526 78.676,21.526 78.676,7.526" style="fill:none;stroke-width:0.050000mm;stroke:black"/>
<polygon points="83.726,7.526 83.726,21.526 97.726,21.526 97.726,7.526" style="fill:none;stroke-width:0.050000mm;stroke:black"/>
<polygon points="102.775,7.526 102.775,21.526 116.775,21.526 116.775,7.526" style="fill:none;stroke-width:0.050000mm;stroke:black"/>
<polygon points="121.825,7.526 121.825,21.526 135.826,21.526 135.826,7.526" style="fill:none;stroke-width:0.050000mm;stroke:black"/>
<polygon points="140.876,7.526 140.876,21.526 154.876,21.526 154.876,7.526" style="fill:none;stroke-width:0.050000mm;stroke:black"/>
<polygon points="159.926,7.526 159.926,21.526 173.926,21.526 173.926,7.526" style="fill:none;stroke-width:0.050000mm;stroke:black"/>
<polygon points="178.976,7.526 178.976,21.526 192.976,21.526 192.976,7.526" style="fill:none;stroke-width:0.050000mm;stroke:black"/>
<polygon points="198.026,7.526 198.026,21.526 212.026,21.526 212.026,7.526" style="fill:none;stroke-width:0.050000mm;stroke:black"/>
<polygon points="217.076,7.526 217.076,21.526 231.076,21.526 231.076,7.526" style="fill:none;stroke-width:0.050000mm;stroke:black"/>
<polygon points="236.126,7.526 236.126,21.526 250.126,21.526 250.126,7.526" style="fill:none;stroke-width:0.050000mm;stroke:black"/>
</svg>
